<svg width="77" height="68" viewBox="0 0 77 68" fill="none" xmlns="http://www.w3.org/2000/svg">
<g clip-path="url(#clip0)">
<g clip-path="url(#clip1)">
<path d="M32.0111 30.8963H44.9897C46.6862 30.8963 48.0663 29.6695 48.0663 28.1616V26.8542C48.0663 23.8392 46.2902 21.1878 43.6209 19.6776L44.2116 18.7034C44.5055 18.2191 44.3019 17.6148 43.757 17.3536C43.2121 17.0924 42.5321 17.2732 42.2385 17.7577L41.5993 18.8117C40.6266 18.5148 39.585 18.3513 38.5004 18.3513C37.4159 18.3513 36.3742 18.5148 35.4016 18.8117L34.7624 17.7577C34.4686 17.2734 33.7887 17.0924 33.2438 17.3536C32.6989 17.6146 32.4954 18.2191 32.7892 18.7034L33.38 19.6776C30.7105 21.1878 28.9346 23.8393 28.9346 26.8542V28.1616C28.9344 29.6695 30.3146 30.8963 32.0111 30.8963ZM31.1762 26.8542C31.1762 23.2645 34.4617 20.3439 38.5003 20.3439C42.5389 20.3439 45.8244 23.2644 45.8244 26.8542V28.1616C45.8244 28.5708 45.4498 28.9036 44.9895 28.9036H32.011C31.5505 28.9036 31.1762 28.5707 31.1762 28.1616V26.8542Z" fill="#FE8500"/>
<path d="M35.2615 26.9382C35.8805 26.9382 36.3824 26.4921 36.3824 25.9419V24.9847C36.3824 24.4345 35.8805 23.9884 35.2615 23.9884C34.6425 23.9884 34.1406 24.4345 34.1406 24.9847V25.9419C34.1406 26.4921 34.6425 26.9382 35.2615 26.9382Z" fill="#FE8500"/>
<path d="M41.7386 26.9382C42.3576 26.9382 42.8594 26.4921 42.8594 25.9419V24.9847C42.8594 24.4345 42.3576 23.9884 41.7386 23.9884C41.1195 23.9884 40.6177 24.4345 40.6177 24.9847V25.9419C40.6177 26.4921 41.1195 26.9382 41.7386 26.9382Z" fill="#FE8500"/>
<path d="M31.1684 44.0022V47.9505C31.1684 49.5028 32.589 50.7655 34.3352 50.7655C36.0814 50.7655 37.502 49.5027 37.502 47.9505V44.062H39.4981V47.9505C39.4981 49.5028 40.9188 50.7655 42.6649 50.7655C44.4111 50.7655 45.8318 49.5027 45.8318 47.9505V44.0022C47.1075 43.7534 48.0658 42.7425 48.0658 41.5349V41.2401C48.0658 40.6899 47.5639 40.2438 46.9449 40.2438C46.3259 40.2438 45.824 40.6899 45.824 41.2401V41.5349C45.824 41.8297 45.5543 42.0695 45.2226 42.0695H44.7109H32.2889H31.7772C31.4456 42.0695 31.1758 41.8297 31.1758 41.5349V34.5344C31.1758 34.2397 31.4456 33.9999 31.7772 33.9999H45.2228C45.5544 33.9999 45.8242 34.2397 45.8242 34.5344V36.5906C45.8242 37.1408 46.326 37.5869 46.945 37.5869C47.5641 37.5869 48.0659 37.1408 48.0659 36.5906V34.5344C48.0659 33.1409 46.7905 32.0072 45.2228 32.0072H31.7772C30.2095 32.0072 28.9341 33.1409 28.9341 34.5344V41.5349C28.9344 42.7425 29.8927 43.7534 31.1684 44.0022ZM41.7401 44.0622H43.5905V47.9506C43.5905 48.4042 43.1755 48.773 42.6654 48.773C42.1553 48.773 41.7403 48.404 41.7403 47.9506V44.0622H41.7401ZM33.4101 44.0622H35.2604V47.9506C35.2604 48.4042 34.8454 48.773 34.3354 48.773C33.8253 48.773 33.4103 48.404 33.4103 47.9506V44.0622H33.4101Z" fill="#FE8500"/>
<path d="M49.5747 38.5563C49.5747 40.1086 50.9954 41.3712 52.7416 41.3712C54.4877 41.3712 55.9084 40.1084 55.9084 38.5563V34.8225C55.9084 33.2703 54.4877 32.0076 52.7416 32.0076C50.9954 32.0076 49.5747 33.2704 49.5747 34.8225V38.5563ZM51.8165 34.8225C51.8165 34.369 52.2315 34.0002 52.7416 34.0002C53.2516 34.0002 53.6666 34.3691 53.6666 34.8225V38.5563C53.6666 39.0098 53.2516 39.3786 52.7416 39.3786C52.2315 39.3786 51.8165 39.0097 51.8165 38.5563V34.8225Z" fill="#FE8500"/>
<path d="M24.2586 41.3714C26.005 41.3714 27.4255 40.1086 27.4255 38.5564V34.8225C27.4255 33.2703 26.0048 32.0076 24.2586 32.0076C22.5125 32.0076 21.0918 33.2704 21.0918 34.8225V38.5563C21.0916 40.1086 22.5123 41.3714 24.2586 41.3714ZM23.3334 34.8225C23.3334 34.369 23.7484 34.0002 24.2585 34.0002C24.7686 34.0002 25.1836 34.3691 25.1836 34.8225V38.5563C25.1836 39.0098 24.7686 39.3786 24.2585 39.3786C23.7484 39.3786 23.3334 39.0097 23.3334 38.5563V34.8225Z" fill="#FE8500"/>
<path d="M56.2878 0H30.4548C29.8358 0 29.3339 0.446092 29.3339 0.996333C29.3339 1.54657 29.8358 1.99267 30.4548 1.99267H56.2878C57.6432 1.99267 58.746 2.97279 58.746 4.17769V8.69307H18.2544V4.17769C18.2544 2.97279 19.3572 1.99267 20.7126 1.99267H25.274C25.893 1.99267 26.3948 1.54657 26.3948 0.996333C26.3948 0.446092 25.893 0 25.274 0H20.7126C18.121 0 16.0127 1.87404 16.0127 4.17769V63.8222C16.0127 66.1258 18.121 67.9999 20.7126 67.9999H56.2878C58.8794 67.9999 60.9877 66.1258 60.9877 63.8222V4.17769C60.9877 1.87404 58.8794 0 56.2878 0V0ZM58.746 63.8223C58.746 65.0272 57.6432 66.0073 56.2878 66.0073H20.7126C19.3572 66.0073 18.2544 65.0272 18.2544 63.8223V59.3069H58.7461V63.8223H58.746ZM58.746 57.3141H18.2544V10.6857H58.7461V57.3141H58.746Z" fill="#FE8500"/>
<path d="M36.6936 63.6534H40.307C40.926 63.6534 41.4279 63.2073 41.4279 62.6571C41.4279 62.1069 40.926 61.6608 40.307 61.6608H36.6936C36.0746 61.6608 35.5728 62.1069 35.5728 62.6571C35.5728 63.2073 36.0746 63.6534 36.6936 63.6534Z" fill="#FE8500"/>
<path d="M33.7753 6.664C34.5962 6.664 35.2616 6.07251 35.2616 5.34287C35.2616 4.61322 34.5962 4.02173 33.7753 4.02173C32.9545 4.02173 32.2891 4.61322 32.2891 5.34287C32.2891 6.07251 32.9545 6.664 33.7753 6.664Z" fill="#FE8500"/>
<path d="M44.7113 6.33922C45.3303 6.33922 45.8321 5.89313 45.8321 5.34289C45.8321 4.79265 45.3303 4.34656 44.7113 4.34656H38.5003C37.8812 4.34656 37.3794 4.79265 37.3794 5.34289C37.3794 5.89313 37.8812 6.33922 38.5003 6.33922H44.7113Z" fill="#FE8500"/>
<path d="M49.1424 15.9023C49.7614 15.9023 50.2632 15.4562 50.2632 14.9059V14.2971C50.2632 13.7469 49.7614 13.3008 49.1424 13.3008C48.5233 13.3008 48.0215 13.7469 48.0215 14.2971V14.9059C48.0215 15.4562 48.5233 15.9023 49.1424 15.9023Z" fill="#FE8500"/>
<path d="M52.5823 15.9022C53.2013 15.9022 53.7032 15.4561 53.7032 14.9059V13.6881C53.7032 13.1379 53.2013 12.6918 52.5823 12.6918C51.9633 12.6918 51.4614 13.1379 51.4614 13.6881V14.9059C51.4614 15.4561 51.9633 15.9022 52.5823 15.9022Z" fill="#FE8500"/>
<path d="M56.0222 15.9023C56.6413 15.9023 57.1431 15.4562 57.1431 14.906V13.0793C57.1431 12.5291 56.6413 12.083 56.0222 12.083C55.4032 12.083 54.9014 12.5291 54.9014 13.0793V14.906C54.9014 15.4562 55.4032 15.9023 56.0222 15.9023Z" fill="#FE8500"/>
</g>
</g>
<defs>
<clipPath id="clip0">
<rect width="76.5" height="68" rx="5" transform="matrix(-1 0 0 1 76.75 0)" fill="white"/>
</clipPath>
<clipPath id="clip1">
<rect width="76.5" height="68" fill="white" transform="translate(0.25)"/>
</clipPath>
</defs>
</svg>
