<svg width="165" height="27" viewBox="0 0 165 27" fill="none" xmlns="http://www.w3.org/2000/svg">
<path d="M0.713867 21V1.80469H6.62012C8.30762 1.80469 9.81494 2.18701 11.1421 2.95166C12.478 3.70752 13.5195 4.78857 14.2666 6.19482C15.0137 7.59229 15.3872 9.18311 15.3872 10.9673V11.8506C15.3872 13.6348 15.0181 15.2212 14.2798 16.6099C13.5503 17.9985 12.5176 19.0752 11.1816 19.8398C9.8457 20.6045 8.33838 20.9912 6.65967 21H0.713867ZM4.66895 5.0083V17.8228H6.58057C8.12744 17.8228 9.30957 17.3174 10.127 16.3066C10.9443 15.2959 11.3618 13.8501 11.3794 11.9692V10.9541C11.3794 9.00293 10.9751 7.52637 10.1665 6.52441C9.35791 5.51367 8.17578 5.0083 6.62012 5.0083H4.66895ZM24.5894 21.2637C22.4976 21.2637 20.7925 20.6221 19.4741 19.3389C18.1646 18.0557 17.5098 16.3462 17.5098 14.2104V13.8413C17.5098 12.4087 17.7866 11.1299 18.3403 10.0049C18.894 8.87109 19.6763 8.00098 20.687 7.39453C21.7065 6.7793 22.8667 6.47168 24.1675 6.47168C26.1187 6.47168 27.6523 7.08691 28.7686 8.31738C29.8936 9.54785 30.4561 11.2925 30.4561 13.5513V15.1069H21.3726C21.4956 16.0386 21.8647 16.7856 22.48 17.3481C23.104 17.9106 23.8906 18.1919 24.8398 18.1919C26.3076 18.1919 27.4546 17.6602 28.2808 16.5967L30.1528 18.6929C29.5815 19.5015 28.8081 20.1343 27.8325 20.5913C26.8569 21.0396 25.7759 21.2637 24.5894 21.2637ZM24.1543 9.55664C23.3984 9.55664 22.7832 9.81152 22.3086 10.3213C21.8428 10.8311 21.5439 11.5605 21.4121 12.5098H26.7119V12.2065C26.6943 11.3628 26.4658 10.7124 26.0264 10.2554C25.5869 9.78955 24.9629 9.55664 24.1543 9.55664ZM40.8975 21C40.7217 20.6572 40.5942 20.231 40.5151 19.7212C39.5923 20.7495 38.3926 21.2637 36.916 21.2637C35.5186 21.2637 34.3584 20.8594 33.4355 20.0508C32.5215 19.2422 32.0645 18.2227 32.0645 16.9922C32.0645 15.4805 32.6226 14.3203 33.7388 13.5117C34.8638 12.7031 36.4854 12.2944 38.6035 12.2856H40.3569V11.4683C40.3569 10.8091 40.1855 10.2817 39.8428 9.88623C39.5088 9.49072 38.9771 9.29297 38.2476 9.29297C37.606 9.29297 37.1006 9.44678 36.7314 9.75439C36.3711 10.062 36.1909 10.4839 36.1909 11.02H32.3809C32.3809 10.1938 32.6357 9.4292 33.1455 8.72607C33.6553 8.02295 34.376 7.47363 35.3076 7.07812C36.2393 6.67383 37.2852 6.47168 38.4453 6.47168C40.2031 6.47168 41.5962 6.91553 42.6245 7.80322C43.6616 8.68213 44.1802 9.92139 44.1802 11.521V17.7041C44.189 19.0576 44.3779 20.0815 44.7471 20.7759V21H40.8975ZM37.7466 18.3501C38.3091 18.3501 38.8276 18.2271 39.3022 17.981C39.7769 17.7261 40.1284 17.3877 40.3569 16.9658V14.5137H38.9331C37.0259 14.5137 36.0107 15.1729 35.8877 16.4912L35.8745 16.7153C35.8745 17.1899 36.0415 17.5811 36.3755 17.8887C36.7095 18.1963 37.1665 18.3501 37.7466 18.3501ZM51.1279 21H47.3047V0.75H51.1279V21ZM62.0044 17.0581C62.0044 16.5923 61.7715 16.2275 61.3057 15.9639C60.8486 15.6914 60.1104 15.4497 59.0908 15.2388C55.6982 14.5269 54.002 13.0854 54.002 10.9146C54.002 9.64893 54.5249 8.59424 55.5708 7.75049C56.6255 6.89795 58.001 6.47168 59.6973 6.47168C61.5078 6.47168 62.9536 6.89795 64.0347 7.75049C65.1245 8.60303 65.6694 9.71045 65.6694 11.0728H61.8594C61.8594 10.5278 61.6836 10.0796 61.332 9.72803C60.9805 9.36768 60.4312 9.1875 59.6841 9.1875C59.0425 9.1875 58.5459 9.33252 58.1943 9.62256C57.8428 9.9126 57.667 10.2817 57.667 10.73C57.667 11.1519 57.8647 11.4946 58.2603 11.7583C58.6646 12.0132 59.3413 12.2373 60.2905 12.4307C61.2397 12.6152 62.0396 12.8262 62.6899 13.0635C64.7026 13.8018 65.709 15.0806 65.709 16.8999C65.709 18.2007 65.1509 19.2554 64.0347 20.064C62.9185 20.8638 61.4771 21.2637 59.7104 21.2637C58.5151 21.2637 57.4517 21.0527 56.52 20.6309C55.5972 20.2002 54.8721 19.6157 54.3447 18.8774C53.8174 18.1304 53.5537 17.3262 53.5537 16.4648H57.166C57.2012 17.1416 57.4517 17.6602 57.9175 18.0205C58.3833 18.3809 59.0073 18.561 59.7896 18.561C60.519 18.561 61.0684 18.4248 61.4375 18.1523C61.8154 17.8711 62.0044 17.5063 62.0044 17.0581Z" fill="#048EF2"/>
<path d="M89.7822 14.9092C89.5449 16.9395 88.7935 18.5083 87.5278 19.6157C86.271 20.7144 84.5967 21.2637 82.5049 21.2637C80.2373 21.2637 78.418 20.4507 77.0469 18.8247C75.6846 17.1987 75.0034 15.0234 75.0034 12.2988V10.4531C75.0034 8.66895 75.3198 7.1001 75.9526 5.74658C76.5942 4.39307 77.4995 3.35596 78.6685 2.63525C79.8374 1.90576 81.1909 1.54102 82.729 1.54102C84.7681 1.54102 86.4028 2.1123 87.6333 3.25488C88.8638 4.38867 89.5801 5.96191 89.7822 7.97461H87.2378C87.0181 6.44531 86.5391 5.33789 85.8008 4.65234C85.0713 3.9668 84.0474 3.62402 82.729 3.62402C81.1118 3.62402 79.8418 4.22168 78.9189 5.41699C78.0049 6.6123 77.5479 8.31299 77.5479 10.519V12.3779C77.5479 14.4609 77.9829 16.1177 78.853 17.3481C79.7231 18.5786 80.9404 19.1938 82.5049 19.1938C83.9111 19.1938 84.9878 18.8774 85.7349 18.2446C86.4907 17.603 86.9917 16.4912 87.2378 14.9092H89.7822ZM92.2212 13.7358C92.2212 12.3384 92.4937 11.0815 93.0386 9.96533C93.5923 8.84912 94.3569 7.98779 95.3325 7.38135C96.3169 6.7749 97.4375 6.47168 98.6943 6.47168C100.637 6.47168 102.206 7.14404 103.401 8.48877C104.605 9.8335 105.207 11.6221 105.207 13.8545V14.0259C105.207 15.4146 104.939 16.6626 104.403 17.77C103.875 18.8687 103.115 19.7256 102.122 20.3408C101.138 20.9561 100.004 21.2637 98.7207 21.2637C96.7871 21.2637 95.2183 20.5913 94.0142 19.2466C92.8188 17.9019 92.2212 16.1221 92.2212 13.9072V13.7358ZM94.6733 14.0259C94.6733 15.6079 95.0381 16.8779 95.7676 17.8359C96.5059 18.7939 97.4902 19.2729 98.7207 19.2729C99.96 19.2729 100.944 18.7896 101.674 17.8228C102.403 16.8472 102.768 15.4849 102.768 13.7358C102.768 12.1714 102.395 10.9058 101.647 9.93896C100.909 8.96338 99.9248 8.47559 98.6943 8.47559C97.4902 8.47559 96.519 8.95459 95.7808 9.9126C95.0425 10.8706 94.6733 12.2417 94.6733 14.0259ZM117.072 19.5894C116.123 20.7056 114.73 21.2637 112.893 21.2637C111.373 21.2637 110.212 20.8242 109.413 19.9453C108.622 19.0576 108.222 17.748 108.213 16.0166V6.73535H110.652V15.9507C110.652 18.1128 111.531 19.1938 113.289 19.1938C115.152 19.1938 116.391 18.4995 117.006 17.1108V6.73535H119.445V21H117.125L117.072 19.5894ZM135.213 14.0259C135.213 16.1968 134.716 17.9458 133.723 19.2729C132.73 20.6001 131.385 21.2637 129.689 21.2637C127.958 21.2637 126.595 20.7144 125.602 19.6157V26.4844H123.163V6.73535H125.391L125.51 8.31738C126.503 7.08691 127.883 6.47168 129.649 6.47168C131.363 6.47168 132.717 7.11768 133.71 8.40967C134.712 9.70166 135.213 11.499 135.213 13.8018V14.0259ZM132.774 13.749C132.774 12.1406 132.431 10.8706 131.746 9.93896C131.06 9.00732 130.12 8.5415 128.924 8.5415C127.448 8.5415 126.34 9.19629 125.602 10.5059V17.3218C126.332 18.6226 127.448 19.2729 128.951 19.2729C130.12 19.2729 131.047 18.8115 131.732 17.8887C132.427 16.957 132.774 15.5771 132.774 13.749ZM137.678 13.7358C137.678 12.3384 137.951 11.0815 138.496 9.96533C139.049 8.84912 139.814 7.98779 140.79 7.38135C141.774 6.7749 142.895 6.47168 144.151 6.47168C146.094 6.47168 147.663 7.14404 148.858 8.48877C150.062 9.8335 150.664 11.6221 150.664 13.8545V14.0259C150.664 15.4146 150.396 16.6626 149.86 17.77C149.333 18.8687 148.572 19.7256 147.579 20.3408C146.595 20.9561 145.461 21.2637 144.178 21.2637C142.244 21.2637 140.675 20.5913 139.471 19.2466C138.276 17.9019 137.678 16.1221 137.678 13.9072V13.7358ZM140.13 14.0259C140.13 15.6079 140.495 16.8779 141.225 17.8359C141.963 18.7939 142.947 19.2729 144.178 19.2729C145.417 19.2729 146.401 18.7896 147.131 17.8228C147.86 16.8472 148.225 15.4849 148.225 13.7358C148.225 12.1714 147.852 10.9058 147.104 9.93896C146.366 8.96338 145.382 8.47559 144.151 8.47559C142.947 8.47559 141.976 8.95459 141.238 9.9126C140.5 10.8706 140.13 12.2417 140.13 14.0259ZM156.03 6.73535L156.109 8.52832C157.199 7.15723 158.623 6.47168 160.38 6.47168C163.395 6.47168 164.916 8.17236 164.942 11.5737V21H162.503V11.5605C162.494 10.5322 162.257 9.77197 161.791 9.27979C161.334 8.7876 160.618 8.5415 159.642 8.5415C158.851 8.5415 158.157 8.75244 157.559 9.17432C156.961 9.59619 156.496 10.1499 156.162 10.8354V21H153.723V6.73535H156.03Z" fill="black"/>
</svg>
