<svg width="78" height="68" viewBox="0 0 78 68" fill="none" xmlns="http://www.w3.org/2000/svg">
<g clip-path="url(#clip0)">
<g clip-path="url(#clip1)">
<path d="M37.7671 62.7329C37.4894 62.4859 37.1039 62.3438 36.7109 62.3438C36.3178 62.3438 35.9323 62.4859 35.6546 62.7329C35.3767 62.9799 35.2168 63.3226 35.2168 63.6719C35.2168 64.0212 35.3765 64.3638 35.6546 64.6109C35.9323 64.8579 36.3178 65 36.7109 65C37.1039 65 37.4894 64.8579 37.7671 64.6109C38.045 64.3638 38.2051 64.0212 38.2051 63.6719C38.2051 63.3226 38.0452 62.9799 37.7671 62.7329Z" fill="#FC8B00"/>
<path d="M67.0153 40.4391L62.0312 39.3807V37.6233C64.7977 36.069 66.6403 33.3279 66.6403 30.21V25.2605C66.6403 20.427 62.2164 16.4948 56.7787 16.4948C53.8454 16.4948 51.2086 17.6405 49.4006 19.4532C47.8171 14.5786 42.7524 11.0033 36.7655 11.0033H36.7654C30.7688 11.0033 25.6972 14.5899 24.1226 19.4765C22.3141 17.6503 19.6676 16.4948 16.7218 16.4948C11.284 16.4948 6.86016 20.4271 6.86016 25.2605V30.21C6.86016 33.328 8.70274 36.0691 11.4693 37.6233V39.3807L6.48514 40.4391C1.78352 41.4373 -1.5 45.1352 -1.5 49.4315V58.3593C-1.5 59.0928 -0.830924 59.6874 -0.00585938 59.6874H11.9417V63.6718C11.9417 64.4053 12.6108 64.9999 13.4359 64.9999H29.8272C30.6523 64.9999 31.3213 64.4053 31.3213 63.6718C31.3213 62.9383 30.6523 62.3437 29.8272 62.3437H23.1569V56.4984C23.1569 55.7648 22.4878 55.1702 21.6628 55.1702C20.8377 55.1702 20.1686 55.7648 20.1686 56.4984V62.3437H14.9299V56.3515C14.9299 51.8473 18.3715 47.9685 23.2993 46.9188L30.6479 45.3535L35.3763 54.9155C35.6148 55.3977 36.1513 55.7092 36.7439 55.7092H36.744C37.3366 55.7092 37.8733 55.3979 38.1118 54.9156L42.8353 45.3676L50.1626 46.9235C55.0949 47.9707 58.5395 51.8503 58.5395 56.3577V57.8398C58.4632 57.9994 58.4207 58.1748 58.4207 58.3592C58.4207 58.5435 58.4632 58.7191 58.5395 58.8786V62.3437H53.3314V56.4984C53.3314 55.7648 52.6623 55.1702 51.8372 55.1702C51.0122 55.1702 50.3431 55.7648 50.3431 56.4984V62.3437H43.0255C42.2005 62.3437 41.5314 62.9383 41.5314 63.6718C41.5314 64.4053 42.2005 64.9999 43.0255 64.9999H60.0336C60.8587 64.9999 61.5278 64.4053 61.5278 63.6718V59.6874H73.5059C74.3309 59.6874 75 59.0928 75 58.3593V49.4315C75 45.1352 71.7165 41.4373 67.0153 40.4391ZM56.7785 19.1511C60.5684 19.1511 63.6519 21.8918 63.6519 25.2605V25.5893V25.7228H59.3782C56.1499 25.7228 52.9777 24.9693 50.182 23.5412C51.0196 21.0069 53.6598 19.1511 56.7785 19.1511ZM49.9052 29.9932C49.9104 29.8576 49.9141 26.4222 49.9141 26.4222C52.8515 27.7062 56.0897 28.3792 59.3783 28.3792H63.652V30.2101C63.6518 33.5788 60.5684 36.3194 56.7785 36.3194C52.9886 36.3194 49.9052 33.5786 49.9052 30.21V29.9932ZM26.6048 22.6909C26.6048 17.711 31.1628 13.6597 36.7654 13.6597C42.3678 13.6597 46.9258 17.7111 46.9258 22.6909V22.8641L41.3803 19.9681C40.7512 19.6394 39.947 19.7631 39.4783 20.2602C37.3237 22.5456 34.1639 23.8565 30.8091 23.8565H26.6048V22.6909ZM9.84815 25.5894V25.2605C9.84815 21.8917 12.9316 19.1511 16.7215 19.1511C19.8402 19.1511 22.4804 21.0069 23.3178 23.5413C20.5221 24.9693 17.3501 25.7229 14.1217 25.7229H9.84815V25.5894ZM9.84815 30.21V28.379H14.1218C17.4137 28.379 20.6553 27.7049 23.5948 26.4183V30.21C23.5948 33.5788 20.5114 36.3194 16.7215 36.3194C12.9316 36.3194 9.84815 33.5786 9.84815 30.21ZM11.9417 56.3515V57.0312H7.46484V51.1305C7.46484 50.3969 6.79577 49.8023 5.9707 49.8023C5.14564 49.8023 4.47656 50.3969 4.47656 51.1305V57.0312H1.48828V49.4315C1.48828 46.3695 3.8284 43.7341 7.17902 43.0227L11.9151 42.0169L15.0062 48.5984C13.073 50.7332 11.9417 53.4391 11.9417 56.3515ZM16.7218 45.3562L14.4526 40.5246C14.4552 40.4929 14.4573 40.4611 14.4573 40.429V38.7399C15.1848 38.8923 15.9423 38.9756 16.7215 38.9756C17.4973 38.9756 18.2512 38.893 18.9759 38.7418V40.3449C18.9742 40.3699 18.9735 40.3948 18.9735 40.4198C18.9735 40.4616 18.9779 40.5032 18.9824 40.5448L16.7218 45.3562ZM22.603 44.3358C21.7207 44.5237 20.8776 44.7852 20.077 45.1077L21.5323 42.0102L26.2692 43.0192C26.6366 43.0974 26.9946 43.2009 27.3411 43.3265L22.603 44.3358ZM30.0193 41.5676C29.0813 41.0504 28.0522 40.6675 26.9656 40.4361L21.9641 39.3709V37.629C23.208 36.9321 24.2645 35.9956 25.0521 34.8921C26.1785 36.8483 27.9074 38.4865 30.0193 39.6132V41.5676ZM40.4753 43.5392L36.7443 51.0811L33.0076 43.5244V40.7853C34.1988 41.1017 35.46 41.2723 36.7652 41.2723C38.0532 41.2723 39.2983 41.106 40.4753 40.7978V43.5392ZM36.7654 38.6162C31.1627 38.6161 26.6048 34.5646 26.6048 29.5848V26.5129H30.809C34.6226 26.5129 38.2371 25.1731 40.9074 22.802L46.917 25.9402V29.8965C46.7312 34.7324 42.2504 38.6162 36.7654 38.6162ZM43.4636 39.6382H43.4638C45.5887 38.5153 47.3297 36.876 48.4648 34.9155C49.2507 36.0087 50.301 36.9369 51.5359 37.629V39.3709L46.5344 40.4361C45.4413 40.669 44.4063 41.0553 43.4636 41.5773V39.6382ZM50.8568 44.3402L46.1316 43.3366C46.4866 43.2065 46.8537 43.0996 47.2308 43.0192L51.9562 42.0128L53.4174 45.124C52.6066 44.7957 51.7518 44.5302 50.8568 44.3402ZM54.5144 40.5646C54.5204 40.5164 54.5247 40.4679 54.5247 40.4193C54.5247 40.4069 54.5246 40.3944 54.5242 40.3821V38.7418C55.2488 38.8931 56.0028 38.9756 56.7785 38.9756C57.5577 38.9756 58.3152 38.8923 59.0427 38.7397V40.4288C59.0427 40.453 59.0447 40.4768 59.0462 40.5007L56.7649 45.3562L54.5144 40.5646ZM72.0117 57.0312H69.0234V51.1305C69.0234 50.3969 68.3544 49.8023 67.5293 49.8023C66.7042 49.8023 66.0352 50.3969 66.0352 51.1305V57.0312H61.5278V56.3578C61.5278 53.4494 60.4003 50.7472 58.4726 48.6142L61.5734 42.0145L66.321 43.0227C69.6716 43.7341 72.0117 46.3695 72.0117 49.4315V57.0312Z" fill="#FC8B00"/>
<path d="M32.795 28.102C32.5172 27.855 32.1317 27.7129 31.7388 27.7129C31.3458 27.7129 30.9603 27.855 30.6824 28.102C30.4045 28.3491 30.2446 28.6917 30.2446 29.041C30.2446 29.3903 30.4044 29.733 30.6824 29.98C30.9605 30.227 31.3458 30.3691 31.7388 30.3691C32.1332 30.3691 32.5172 30.227 32.795 29.98C33.0744 29.733 33.2329 29.3903 33.2329 29.041C33.2329 28.6917 33.0744 28.3491 32.795 28.102Z" fill="#FC8B00"/>
<path d="M42.7862 28.102C42.5084 27.855 42.1229 27.7129 41.73 27.7129C41.337 27.7129 40.9515 27.855 40.6736 28.102C40.3957 28.3491 40.2358 28.6917 40.2358 29.041C40.2358 29.3903 40.3956 29.733 40.6736 29.98C40.9517 30.227 41.337 30.3691 41.73 30.3691C42.1229 30.3691 42.5084 30.227 42.7862 29.98C43.0656 29.733 43.2241 29.3903 43.2241 29.041C43.2241 28.6917 43.0656 28.3491 42.7862 28.102Z" fill="#FC8B00"/>
<path d="M39.6258 32.5728C39.0422 32.0542 38.0964 32.0542 37.5126 32.5728C37.0708 32.9655 36.352 32.9655 35.9101 32.5728C35.3265 32.0542 34.3807 32.0542 33.797 32.5728C33.2135 33.0914 33.2135 33.9324 33.797 34.4512C34.6005 35.1653 35.6558 35.5224 36.7113 35.5224C37.7668 35.5224 38.8221 35.1654 39.6256 34.4512C40.2092 33.9324 40.2092 33.0914 39.6258 32.5728Z" fill="#FC8B00"/>
<path d="M60.2797 4.17188H59.2549C58.4298 4.17188 57.7607 4.76648 57.7607 5.5C57.7607 6.23352 58.4298 6.82812 59.2549 6.82812H60.2797C61.1048 6.82812 61.7739 6.23352 61.7739 5.5C61.7739 4.76648 61.1048 4.17188 60.2797 4.17188Z" fill="#FC8B00"/>
<path d="M67.5292 4.17188H66.5044C65.6793 4.17188 65.0103 4.76648 65.0103 5.5C65.0103 6.23352 65.6792 6.82812 66.5044 6.82812H67.5292C68.3543 6.82812 69.0234 6.23352 69.0234 5.5C69.0234 4.76648 68.3543 4.17188 67.5292 4.17188Z" fill="#FC8B00"/>
<path d="M63.3921 6.93848C62.567 6.93848 61.8979 7.53308 61.8979 8.2666V9.17756C61.8979 9.91109 62.5669 10.5057 63.3921 10.5057C64.2172 10.5057 64.8862 9.91109 64.8862 9.17756V8.2666C64.8862 7.53308 64.2172 6.93848 63.3921 6.93848Z" fill="#FC8B00"/>
<path d="M63.3921 0.494263C62.567 0.494263 61.8979 1.08886 61.8979 1.82239V2.73335C61.8979 3.46687 62.5669 4.06147 63.3921 4.06147C64.2172 4.06147 64.8862 3.46687 64.8862 2.73335V1.82239C64.8862 1.08886 64.2172 0.494263 63.3921 0.494263Z" fill="#FC8B00"/>
<path d="M6.91238 4.17188H5.8877C5.06263 4.17188 4.39355 4.76648 4.39355 5.5C4.39355 6.23352 5.06263 6.82812 5.8877 6.82812H6.91238C7.73744 6.82812 8.40652 6.23352 8.40652 5.5C8.40652 4.76648 7.73744 4.17188 6.91238 4.17188Z" fill="#FC8B00"/>
<path d="M14.1619 4.17188H13.1372C12.3121 4.17188 11.6431 4.76648 11.6431 5.5C11.6431 6.23352 12.312 6.82812 13.1372 6.82812H14.1619C14.987 6.82812 15.656 6.23352 15.656 5.5C15.656 4.76648 14.987 4.17188 14.1619 4.17188Z" fill="#FC8B00"/>
<path d="M10.0249 6.93848C9.19984 6.93848 8.53076 7.53308 8.53076 8.2666V9.17756C8.53076 9.91109 9.19969 10.5057 10.0249 10.5057C10.85 10.5057 11.519 9.91109 11.519 9.17756V8.2666C11.519 7.53308 10.85 6.93848 10.0249 6.93848Z" fill="#FC8B00"/>
<path d="M10.0249 0.494263C9.19984 0.494263 8.53076 1.08886 8.53076 1.82239V2.73335C8.53076 3.46687 9.19969 4.06147 10.0249 4.06147C10.85 4.06147 11.519 3.46687 11.519 2.73335V1.82239C11.519 1.08886 10.85 0.494263 10.0249 0.494263Z" fill="#FC8B00"/>
<path d="M36.75 2.05847C35.9249 2.05847 35.2559 2.65307 35.2559 3.3866V6.88089C35.2559 7.61442 35.9249 8.20902 36.75 8.20902C37.5751 8.20902 38.2441 7.61442 38.2441 6.88089V3.3866C38.2441 2.65307 37.5751 2.05847 36.75 2.05847Z" fill="#FC8B00"/>
<path d="M31.5137 2.32828L29.3271 0.384702C28.7435 -0.133931 27.7977 -0.133931 27.214 0.384702C26.6305 0.903335 26.6305 1.7443 27.214 2.26307L29.4006 4.20665C29.6924 4.46603 30.0748 4.59565 30.4571 4.59565C30.8395 4.59565 31.2218 4.46603 31.5137 4.20665C32.0971 3.68801 32.0971 2.84704 31.5137 2.32828Z" fill="#FC8B00"/>
<path d="M46.2854 0.311704C45.7018 -0.206929 44.756 -0.206929 44.1723 0.311704L41.9127 2.32023C41.3292 2.83886 41.3292 3.67983 41.9127 4.1986C42.2046 4.45798 42.5869 4.5876 42.9694 4.5876C43.3519 4.5876 43.734 4.45798 44.0259 4.1986L46.2854 2.19007C46.8689 1.67144 46.8689 0.83047 46.2854 0.311704Z" fill="#FC8B00"/>
</g>
</g>
<defs>
<clipPath id="clip0">
<rect width="76.5" height="68" fill="white" transform="matrix(-1 0 0 1 77.25 0)"/>
</clipPath>
<clipPath id="clip1">
<rect width="76.5" height="68" fill="white" transform="translate(-1.5 -3)"/>
</clipPath>
</defs>
</svg>
