<svg width="68" height="68" viewBox="0 0 68 68" fill="none" xmlns="http://www.w3.org/2000/svg">
<g clip-path="url(#clip0)">
<g clip-path="url(#clip1)">
<path d="M0.0820312 63.4812L0.963513 65.4653L32.5946 52.3497L38.1052 53.0111L40.0888 59.0727L37.4438 61.6079C36.452 62.4894 36.1216 63.922 36.6727 65.2447L37.7748 68L56.0696 60.8362L55.0778 58.1912C54.637 56.8685 53.4246 56.0973 51.992 56.0973H48.3547L46.3711 51.3579L51.2203 48.9335C52.7632 48.1618 53.4246 46.3983 52.8735 44.8555L46.5918 27.9932C45.9304 26.2297 44.0566 25.458 42.293 26.0091C42.293 26.0091 42.1833 26.0091 42.1833 26.1194L37.5541 28.103L36.8928 26.4498L39.428 23.4744C41.1909 21.4903 42.293 19.066 42.624 16.421L45.8201 12.5635C47.914 10.1387 47.4732 6.50188 45.0484 4.40742C44.6076 4.077 44.1669 3.74658 43.7261 3.52594C42.5137 2.97488 41.3013 2.86456 39.979 3.19552L39.6481 2.20318C39.097 0.440213 37.1134 -0.441807 35.4602 0.219574L12.2054 8.5958C10.4419 9.25718 9.56038 11.1305 10.2218 12.7836V12.894L10.7728 14.3265C7.9072 15.6493 6.58444 18.9556 7.57624 21.8213C8.34794 24.0255 10.3315 25.5684 12.6461 25.8988L17.8263 26.4498C19.9202 27.9932 22.4549 28.985 24.9901 29.2051L28.6269 29.5361L29.2882 31.1893C28.5165 31.63 27.9655 32.4017 27.7454 33.3935L26.9737 37.1406L0.0820312 48.0515L0.853731 50.1454L16.2834 43.974L20.0305 55.2153L0.0820312 63.4812ZM52.8735 58.8526L53.0942 59.5135L38.9867 65.1344L38.6563 64.473C38.5459 64.0323 38.6563 63.5915 38.8769 63.2611L42.624 59.7341L47.3629 58.1912H51.7714C52.3225 58.1912 52.6534 58.4113 52.8735 58.8526ZM45.9304 56.2071L41.9626 57.5299L40.5301 53.342C41.1909 53.4518 41.742 53.342 42.293 53.0111L44.1669 52.1296L45.9304 56.2071ZM42.9544 27.7726C43.5055 27.552 44.1669 27.7726 44.3875 28.3237L45.269 30.6382L39.8687 32.4017L40.5301 34.4956L45.9304 32.7321L47.2526 36.2591L42.0729 38.0221L42.7343 40.1166L48.0243 38.3531L49.3471 41.8795L44.2772 43.5327L44.9386 45.6272L50.1182 43.8637L50.6693 45.2962C50.8899 45.8473 50.6693 46.3983 50.1182 46.619L41.4116 50.9171C41.1909 51.0275 40.9708 51.0275 40.7502 51.0275L33.256 50.1454L29.1779 37.9123L29.9496 33.8343C30.0599 33.5038 30.28 33.1729 30.611 33.0626L42.9544 27.7726ZM42.8441 5.50954C44.6076 6.28124 45.4896 8.37516 44.7179 10.249C44.6076 10.5794 44.3875 10.8 44.1669 11.1305L42.8441 12.7836C42.7343 11.6815 42.5137 10.6897 42.1833 9.5876L40.7502 5.28944C41.5219 5.17912 42.1833 5.28944 42.8441 5.50954ZM9.78048 21.2702C9.11964 19.3964 9.8908 17.4128 11.6543 16.5307L13.1972 20.2784C13.7482 21.6006 14.5199 22.9234 15.4014 24.0255L13.0868 23.8049C11.544 23.6945 10.2218 22.7027 9.78048 21.2702ZM25.4308 27.1112C20.912 26.6705 16.9443 23.8049 15.2911 19.5067L12.426 12.2326C12.2054 11.6815 12.426 11.0201 12.9771 10.8L36.2314 2.42382C36.5623 2.3135 36.7824 2.3135 37.1134 2.42382C37.3335 2.53414 37.5541 2.75424 37.6645 3.0852L40.0888 10.3593C41.4116 14.4368 40.5301 18.8453 37.7748 22.0414L34.3581 26.0091L35.3499 28.6541L31.3822 30.3073L30.28 27.552L25.4308 27.1112ZM18.3773 43.092L20.912 42.1002L23.6673 50.4764L25.7612 49.815L22.8962 41.2187L27.3046 39.4552L31.0517 50.5867L22.1245 54.3338L18.3773 43.092Z" fill="#FD8600"/>
<path d="M54.5267 19.2861V20.3882H56.731V19.2861C56.731 16.2003 59.1558 13.7755 62.2416 13.7755V11.5712C59.1558 11.5712 56.731 9.14688 56.731 6.06062V4.9585H54.5267V6.06062C54.5267 9.14688 52.1024 11.5712 49.0161 11.5712V13.7755C52.1024 13.7755 54.5267 16.2003 54.5267 19.2861ZM55.6288 10.0284C56.2902 11.1305 57.1717 12.0125 58.2738 12.6733C57.1717 13.3347 56.2902 14.2167 55.6288 15.3189C54.9675 14.2167 54.086 13.3347 52.9839 12.6733C54.086 12.0125 54.9675 11.1305 55.6288 10.0284Z" fill="#FD8600"/>
<path d="M6.03356 41.3286V42.4307H8.2378V41.3286C8.2378 38.2428 10.6627 35.8179 13.7484 35.8179V33.6137C10.6627 33.6137 8.2378 31.1894 8.2378 28.1031V27.001H6.03356V28.1031C6.03356 31.1894 3.60921 33.6137 0.522949 33.6137V35.8179C3.60921 35.8179 6.03356 38.2428 6.03356 41.3286ZM7.13568 32.0708C7.79706 33.173 8.67854 34.055 9.78066 34.7158C8.67854 35.3772 7.79706 36.2592 7.13568 37.3614C6.4743 36.2592 5.59281 35.3772 4.49069 34.7158C5.59281 34.055 6.4743 33.173 7.13568 32.0708Z" fill="#FD8600"/>
<path d="M61.1397 28.1031V27.001H58.9354V28.1031C58.9354 31.1894 56.5111 33.6137 53.4248 33.6137V35.8179C56.5111 35.8179 58.9354 38.2428 58.9354 41.3286V42.4307H61.1397V41.3286C61.1397 38.2428 63.5645 35.8179 66.6503 35.8179V33.6137C63.5645 33.6137 61.1397 31.1894 61.1397 28.1031ZM60.0375 37.3614C59.3762 36.2592 58.4947 35.3772 57.3925 34.7158C58.4947 34.055 59.3762 33.173 60.0375 32.0708C60.6989 33.173 61.5804 34.055 62.6825 34.7158C61.5804 35.3772 60.6989 36.2592 60.0375 37.3614Z" fill="#FD8600"/>
<path d="M32.8154 19.617L34.3582 21.1599C40.4199 15.0982 34.799 5.84048 34.4685 5.50952L32.5947 6.72196C32.705 6.72196 37.6646 14.7678 32.8154 19.617Z" fill="#FD8600"/>
</g>
</g>
<defs>
<clipPath id="clip0">
<rect width="68" height="68" fill="white" transform="matrix(-1 0 0 1 68 0)"/>
</clipPath>
<clipPath id="clip1">
<rect width="68" height="68" fill="white"/>
</clipPath>
</defs>
</svg>
